{
	"asset":{
		"generator":"Khronos glTF Blender I/O v3.6.28",
		"version":"2.0"
	},
	"scene":0,
	"scenes":[
		{
			"name":"Scene",
			"nodes":[
				0
			]
		}
	],
	"nodes":[
		{
			"mesh":0,
			"name":"Cylinder.002",
			"rotation":[
				0.02188495732843876,
				0.9692869782447815,
				-0.010346333496272564,
				0.24473825097084045
			],
			"translation":[
				-0.035206399857997894,
				3.370793104171753,
				0.1473512202501297
			]
		}
	],
	"materials":[
		{
			"doubleSided":true,
			"name":"Material.002",
			"pbrMetallicRoughness":{
				"baseColorFactor":[
					0,
					0,
					0,
					1
				],
				"metallicFactor":0.33070865273475647,
				"roughnessFactor":0.10629922151565552
			}
		},
		{
			"doubleSided":true,
			"name":"Material.003",
			"pbrMetallicRoughness":{
				"baseColorFactor":[
					0.8000000715255737,
					0.320048063993454,
					0,
					1
				],
				"metallicFactor":0,
				"roughnessFactor":0.5
			}
		},
		{
			"doubleSided":true,
			"name":"Material.004",
			"pbrMetallicRoughness":{
				"metallicFactor":0,
				"roughnessFactor":0.5
			}
		},
		{
			"doubleSided":true,
			"name":"Material.005",
			"pbrMetallicRoughness":{
				"baseColorFactor":[
					0.42002055048942566,
					0.42002055048942566,
					0.42002055048942566,
					1
				],
				"metallicFactor":0,
				"roughnessFactor":0.5
			}
		}
	],
	"meshes":[
		{
			"name":"Cylinder.009",
			"primitives":[
				{
					"attributes":{
						"POSITION":0,
						"NORMAL":1,
						"TEXCOORD_0":2
					},
					"indices":3,
					"material":0
				},
				{
					"attributes":{
						"POSITION":4,
						"NORMAL":5,
						"TEXCOORD_0":6
					},
					"indices":7,
					"material":1
				},
				{
					"attributes":{
						"POSITION":8,
						"NORMAL":9,
						"TEXCOORD_0":10
					},
					"indices":11,
					"material":2
				},
				{
					"attributes":{
						"POSITION":12,
						"NORMAL":13,
						"TEXCOORD_0":14
					},
					"indices":15,
					"material":3
				}
			]
		}
	],
	"accessors":[
		{
			"bufferView":0,
			"componentType":5126,
			"count":877,
			"max":[
				0.9612321257591248,
				-0.7454413771629333,
				1.0092453956604004
			],
			"min":[
				-1.5801979303359985,
				-2.7430973052978516,
				-0.980797290802002
			],
			"type":"VEC3"
		},
		{
			"bufferView":1,
			"componentType":5126,
			"count":877,
			"type":"VEC3"
		},
		{
			"bufferView":2,
			"componentType":5126,
			"count":877,
			"type":"VEC2"
		},
		{
			"bufferView":3,
			"componentType":5123,
			"count":3528,
			"type":"SCALAR"
		},
		{
			"bufferView":4,
			"componentType":5126,
			"count":196244,
			"max":[
				0.5041972994804382,
				-2.385468006134033,
				0.7302102446556091
			],
			"min":[
				-0.6092718243598938,
				-3.3817379474639893,
				-0.5859377980232239
			],
			"type":"VEC3"
		},
		{
			"bufferView":5,
			"componentType":5126,
			"count":196244,
			"type":"VEC3"
		},
		{
			"bufferView":6,
			"componentType":5126,
			"count":196244,
			"type":"VEC2"
		},
		{
			"bufferView":7,
			"componentType":5125,
			"count":294912,
			"type":"SCALAR"
		},
		{
			"bufferView":8,
			"componentType":5126,
			"count":3968,
			"max":[
				1.0664316415786743,
				-1.5702683925628662,
				-0.08433428406715393
			],
			"min":[
				0.5646239519119263,
				-1.9972641468048096,
				-0.7294368147850037
			],
			"type":"VEC3"
		},
		{
			"bufferView":9,
			"componentType":5126,
			"count":3968,
			"type":"VEC3"
		},
		{
			"bufferView":10,
			"componentType":5126,
			"count":3968,
			"type":"VEC2"
		},
		{
			"bufferView":11,
			"componentType":5123,
			"count":5760,
			"type":"SCALAR"
		},
		{
			"bufferView":12,
			"componentType":5126,
			"count":1924,
			"max":[
				0.49502032995224,
				0.5623776316642761,
				0.5459671020507812
			],
			"min":[
				-0.9840495586395264,
				-1.0735615491867065,
				-0.5017924308776855
			],
			"type":"VEC3"
		},
		{
			"bufferView":13,
			"componentType":5126,
			"count":1924,
			"type":"VEC3"
		},
		{
			"bufferView":14,
			"componentType":5126,
			"count":1924,
			"type":"VEC2"
		},
		{
			"bufferView":15,
			"componentType":5123,
			"count":3240,
			"type":"SCALAR"
		}
	],
	"bufferViews":[
		{
			"buffer":0,
			"byteLength":10524,
			"byteOffset":0,
			"target":34962
		},
		{
			"buffer":0,
			"byteLength":10524,
			"byteOffset":10524,
			"target":34962
		},
		{
			"buffer":0,
			"byteLength":7016,
			"byteOffset":21048,
			"target":34962
		},
		{
			"buffer":0,
			"byteLength":7056,
			"byteOffset":28064,
			"target":34963
		},
		{
			"buffer":0,
			"byteLength":2354928,
			"byteOffset":35120,
			"target":34962
		},
		{
			"buffer":0,
			"byteLength":2354928,
			"byteOffset":2390048,
			"target":34962
		},
		{
			"buffer":0,
			"byteLength":1569952,
			"byteOffset":4744976,
			"target":34962
		},
		{
			"buffer":0,
			"byteLength":1179648,
			"byteOffset":6314928,
			"target":34963
		},
		{
			"buffer":0,
			"byteLength":47616,
			"byteOffset":7494576,
			"target":34962
		},
		{
			"buffer":0,
			"byteLength":47616,
			"byteOffset":7542192,
			"target":34962
		},
		{
			"buffer":0,
			"byteLength":31744,
			"byteOffset":7589808,
			"target":34962
		},
		{
			"buffer":0,
			"byteLength":11520,
			"byteOffset":7621552,
			"target":34963
		},
		{
			"buffer":0,
			"byteLength":23088,
			"byteOffset":7633072,
			"target":34962
		},
		{
			"buffer":0,
			"byteLength":23088,
			"byteOffset":7656160,
			"target":34962
		},
		{
			"buffer":0,
			"byteLength":15392,
			"byteOffset":7679248,
			"target":34962
		},
		{
			"buffer":0,
			"byteLength":6480,
			"byteOffset":7694640,
			"target":34963
		}
	],
	"buffers":[
		{
			"byteLength":7701120,
			"uri":"bomba.bin"
		}
	]
}
