{
	"asset":{
		"generator":"Khronos glTF Blender I/O v3.6.28",
		"version":"2.0"
	},
	"scene":0,
	"scenes":[
		{
			"name":"Scene",
			"nodes":[
				0
			]
		}
	],
	"nodes":[
		{
			"mesh":0,
			"name":"tuberia",
			"translation":[
				0.0544118732213974,
				0.03215948864817619,
				2.738093137741089
			]
		}
	],
	"materials":[
		{
			"doubleSided":true,
			"name":"tuberia verde",
			"pbrMetallicRoughness":{
				"baseColorFactor":[
					0.008049353957176208,
					0.36723461747169495,
					0,
					1
				],
				"metallicFactor":100,
				"roughnessFactor":0.4527558982372284
			}
		}
	],
	"meshes":[
		{
			"name":"Circle",
			"primitives":[
				{
					"attributes":{
						"POSITION":0,
						"NORMAL":1,
						"TEXCOORD_0":2
					},
					"indices":3,
					"material":0
				}
			]
		}
	],
	"accessors":[
		{
			"bufferView":0,
			"componentType":5126,
			"count":77826,
			"max":[
				1.334294319152832,
				1.9936808347702026,
				1.334294319152832
			],
			"min":[
				-1.3342941999435425,
				0.010630997829139233,
				-1.334294319152832
			],
			"type":"VEC3"
		},
		{
			"bufferView":1,
			"componentType":5126,
			"count":77826,
			"type":"VEC3"
		},
		{
			"bufferView":2,
			"componentType":5126,
			"count":77826,
			"type":"VEC2"
		},
		{
			"bufferView":3,
			"componentType":5125,
			"count":466944,
			"type":"SCALAR"
		}
	],
	"bufferViews":[
		{
			"buffer":0,
			"byteLength":933912,
			"byteOffset":0,
			"target":34962
		},
		{
			"buffer":0,
			"byteLength":933912,
			"byteOffset":933912,
			"target":34962
		},
		{
			"buffer":0,
			"byteLength":622608,
			"byteOffset":1867824,
			"target":34962
		},
		{
			"buffer":0,
			"byteLength":1867776,
			"byteOffset":2490432,
			"target":34963
		}
	],
	"buffers":[
		{
			"byteLength":4358208,
			"uri":"tuberia.bin"
		}
	]
}
