{
	"asset":{
		"generator":"Khronos glTF Blender I/O v3.6.28",
		"version":"2.0"
	},
	"scene":0,
	"scenes":[
		{
			"name":"Scene",
			"nodes":[
				0
			]
		}
	],
	"nodes":[
		{
			"mesh":0,
			"name":"Cube.001",
			"translation":[
				-0.11628347635269165,
				2.1025967597961426,
				-2.8665831089019775
			]
		}
	],
	"materials":[
		{
			"doubleSided":true,
			"name":"piel",
			"pbrMetallicRoughness":{
				"baseColorFactor":[
					0.8000000715255737,
					0.3091655969619751,
					0.22387568652629852,
					1
				],
				"metallicFactor":0,
				"roughnessFactor":0.5
			}
		},
		{
			"doubleSided":true,
			"name":"ojos",
			"pbrMetallicRoughness":{
				"baseColorFactor":[
					0,
					0,
					0,
					1
				],
				"metallicFactor":0,
				"roughnessFactor":0.5
			}
		},
		{
			"doubleSided":true,
			"name":"Material.001",
			"pbrMetallicRoughness":{
				"metallicFactor":0,
				"roughnessFactor":0.5
			}
		}
	],
	"meshes":[
		{
			"name":"Cube.002",
			"primitives":[
				{
					"attributes":{
						"POSITION":0,
						"NORMAL":1,
						"TEXCOORD_0":2,
						"TANGENT":3
					},
					"indices":4,
					"material":0
				},
				{
					"attributes":{
						"POSITION":5,
						"NORMAL":6,
						"TEXCOORD_0":7,
						"TANGENT":8
					},
					"indices":9,
					"material":1
				},
				{
					"attributes":{
						"POSITION":10,
						"NORMAL":11,
						"TEXCOORD_0":12,
						"TANGENT":13
					},
					"indices":14,
					"material":2
				}
			]
		}
	],
	"accessors":[
		{
			"bufferView":0,
			"componentType":5126,
			"count":2978,
			"max":[
				0.9167453646659851,
				-0.2527509927749634,
				0.9026995897293091
			],
			"min":[
				-0.9165881872177124,
				-2.092257499694824,
				-0.9306339025497437
			],
			"type":"VEC3"
		},
		{
			"bufferView":1,
			"componentType":5126,
			"count":2978,
			"type":"VEC3"
		},
		{
			"bufferView":2,
			"componentType":5126,
			"count":2978,
			"type":"VEC2"
		},
		{
			"bufferView":3,
			"componentType":5126,
			"count":2978,
			"type":"VEC4"
		},
		{
			"bufferView":4,
			"componentType":5123,
			"count":16896,
			"type":"SCALAR"
		},
		{
			"bufferView":5,
			"componentType":5126,
			"count":3026,
			"max":[
				-0.808262825012207,
				-1.337694525718689,
				0.29374974966049194
			],
			"min":[
				-0.9612189531326294,
				-1.5476471185684204,
				-0.36742159724235535
			],
			"type":"VEC3"
		},
		{
			"bufferView":6,
			"componentType":5126,
			"count":3026,
			"type":"VEC3"
		},
		{
			"bufferView":7,
			"componentType":5126,
			"count":3026,
			"type":"VEC2"
		},
		{
			"bufferView":8,
			"componentType":5126,
			"count":3026,
			"type":"VEC4"
		},
		{
			"bufferView":9,
			"componentType":5123,
			"count":16896,
			"type":"SCALAR"
		},
		{
			"bufferView":10,
			"componentType":5126,
			"count":3697,
			"max":[
				1.7557944059371948,
				1.3092710971832275,
				1.7368098497390747
			],
			"min":[
				-1.7311984300613403,
				-1.0378950834274292,
				-1.750182867050171
			],
			"type":"VEC3"
		},
		{
			"bufferView":11,
			"componentType":5126,
			"count":3697,
			"type":"VEC3"
		},
		{
			"bufferView":12,
			"componentType":5126,
			"count":3697,
			"type":"VEC2"
		},
		{
			"bufferView":13,
			"componentType":5126,
			"count":3697,
			"type":"VEC4"
		},
		{
			"bufferView":14,
			"componentType":5123,
			"count":21504,
			"type":"SCALAR"
		}
	],
	"bufferViews":[
		{
			"buffer":0,
			"byteLength":35736,
			"byteOffset":0,
			"target":34962
		},
		{
			"buffer":0,
			"byteLength":35736,
			"byteOffset":35736,
			"target":34962
		},
		{
			"buffer":0,
			"byteLength":23824,
			"byteOffset":71472,
			"target":34962
		},
		{
			"buffer":0,
			"byteLength":47648,
			"byteOffset":95296,
			"target":34962
		},
		{
			"buffer":0,
			"byteLength":33792,
			"byteOffset":142944,
			"target":34963
		},
		{
			"buffer":0,
			"byteLength":36312,
			"byteOffset":176736,
			"target":34962
		},
		{
			"buffer":0,
			"byteLength":36312,
			"byteOffset":213048,
			"target":34962
		},
		{
			"buffer":0,
			"byteLength":24208,
			"byteOffset":249360,
			"target":34962
		},
		{
			"buffer":0,
			"byteLength":48416,
			"byteOffset":273568,
			"target":34962
		},
		{
			"buffer":0,
			"byteLength":33792,
			"byteOffset":321984,
			"target":34963
		},
		{
			"buffer":0,
			"byteLength":44364,
			"byteOffset":355776,
			"target":34962
		},
		{
			"buffer":0,
			"byteLength":44364,
			"byteOffset":400140,
			"target":34962
		},
		{
			"buffer":0,
			"byteLength":29576,
			"byteOffset":444504,
			"target":34962
		},
		{
			"buffer":0,
			"byteLength":59152,
			"byteOffset":474080,
			"target":34962
		},
		{
			"buffer":0,
			"byteLength":43008,
			"byteOffset":533232,
			"target":34963
		}
	],
	"buffers":[
		{
			"byteLength":576240,
			"uri":"zeta.bin"
		}
	]
}
